. 
 
http://www.torrentday.com   -    Your Key To The Scene.


Now TvTeam with [No-RAR] Releases.


(((((((((((((= Enjoy No RAR releases =))))))))))))))))))))

...................................NFO:....................................



Kick Ass R5 XViD AC3 - IMAGiNE


Ripper ...........: IMAGiNE                                        IMDB Rating.......:8.5/10                             
Video Codec.......: XVID                                         Release Date......:08/05/10
Audio Codec.......:AC3                                           Theatre Date......:16/04/10
Audio Bitrate.....:384                                              Runtime.......:1h 52mn
Subtitles.........:NIL                                                 Language..........:ENGLISH
Resolution...... 720 x 320                                      IMDb URL..........:http://www.imdb.com/title/tt1250777/


[color=yellow]DETAILS:[/color]

Video
Format                           : MPEG-4 Visual
Format profile                   : Streaming Video@L1
Format settings, BVOP            : Yes
Format settings, QPel            : No
Format settings, GMC             : No warppoints
Format settings, Matrix          : Default
Muxing mode                      : Packed bitstream
Codec ID                         : XVID
Codec ID/Hint                    : XviD
Duration                         : 1h 52mn
Bit rate                         : 2 200 Kbps
Width                            : 720 pixels
Height                           : 320 pixels
Display aspect ratio             : 2.25
Frame rate                       : 25.000 fps
Resolution                       : 24 bits
Colorimetry                      : 4:2:0
Scan type                        : Progressive
Bits/(Pixel*Frame)               : 0.382
Stream size                      : 1.73 GiB (85%)
Writing library                  : XviD 50

Audio
Format                           : AC-3
Format/Info                      : Audio Coding 3
Codec ID                         : 2000
Duration                         : 1h 52mn
Bit rate mode                    : Constant
Bit rate                         : 384 Kbps
Channel(s)                       : 6 channels
Channel positions                : Front: L C R, Surround: L R, LFE
Sampling rate                    : 48.0 KHz
Stream size                      : 310 MiB (15%)
Alignment                        : Aligned on interleaves
Interleave, duration             : 40 ms (1.00 video frame)
Interleave, preload duration     : 512 ms



NOTES:

IMAGiNE bringing you another release.....Kick Ass R5
We know there are a lot of releases for this one out there already, but we thought we would release this along with them just incase a few wanted it. Was a very nice R5 so not much had to be done. A few normal things to the video and that was it. Sources where the Russian R5 for video (Thanks). & Our own sweet line audio.

Enjoy...